<svg xmlns="http://www.w3.org/2000/svg" xmlns:xlink="http://www.w3.org/1999/xlink" viewBox="0 0 15.46 15.46"><path d="M7.73,0a7.73,7.73,0,1,0,7.73,7.73A7.73,7.73,0,0,0,7.73,0m0,12.78h0a.84.84,0,0,1,0-1.68h0a.84.84,0,1,1,0,1.68m3-6.18a1.7,1.7,0,0,1-.33.64,4.87,4.87,0,0,1-.42.49c-.13.12-.32.3-.59.53a3.56,3.56,0,0,0-.79.82,2.8,2.8,0,0,0-.14,1.1H7a4.47,4.47,0,0,1,.18-1.39,2.58,2.58,0,0,1,.73-1,1.82,1.82,0,0,1,.26-.23l.27-.25L8.65,7a1.36,1.36,0,0,0,.22-.27c0-.07.09-.16.14-.27a1.1,1.1,0,0,0,.12-.33,1.9,1.9,0,0,0,0-.35,1.26,1.26,0,0,0-.38-1,1.37,1.37,0,0,0-1-.36c-1,0-1.55.62-1.59,1.87H4.69a3.54,3.54,0,0,1,.85-2.32,3,3,0,0,1,2.28-.84A3.09,3.09,0,0,1,10,3.93a2.41,2.41,0,0,1,.81,1.89,3.1,3.1,0,0,1-.09.78" fill="currentColor"/></svg>