<svg xmlns="http://www.w3.org/2000/svg" xmlns:xlink="http://www.w3.org/1999/xlink" viewBox="0 0 26.47 24.55"><path d="M13.47,21.63a2.18,2.18,0,1,1-2.18-2.18A2.18,2.18,0,0,1,13.47,21.63Z" fill="none" stroke="currentColor" stroke-linecap="round" stroke-linejoin="round" stroke-width="1.5"/><circle cx="19.69" cy="21.63" r="2.18" fill="none" stroke="currentColor" stroke-linecap="round" stroke-linejoin="round" stroke-width="1.5"/><path d="M15.37,13.39a.71.71,0,0,1-.53-.22l-4-4a.75.75,0,0,1,1.06-1.06l3.45,3.44,8-7.95a.75.75,0,1,1,1.06,1.06L15.9,13.17a.74.74,0,0,1-.53.22" fill="currentColor" /><path d="M26.31,5A.79.79,0,0,0,26,4.79a2.18,2.18,0,0,1-.56,1l-.79.79-2.53,9.4H9.62L5.4.55A.76.76,0,0,0,4.67,0H.75A.76.76,0,0,0,0,.75a.76.76,0,0,0,.75.75H4.1L8.33,16.89a.75.75,0,0,0,.72.55H22.69a.76.76,0,0,0,.73-.56l3-11.21A.76.76,0,0,0,26.31,5" fill="currentColor" /><path d="M10.63,4.73a.75.75,0,1,0,0,1.5h8l1.5-1.5Z" fill="currentColor" /></svg>