<svg xmlns="http://www.w3.org/2000/svg" viewBox="0 0 19 17"><rect x="9" width="1" height="11" fill="currentColor"/><rect y="4" width="4" height="1" fill="currentColor"/><rect y="4" width="4" height="1" fill="currentColor"/><rect x="15" y="4" width="4" height="1" fill="currentColor"/><rect x="15" y="4" width="4" height="1" fill="currentColor"/><rect x="8" y="11" width="1" height="1" fill="currentColor"/><rect x="8" y="11" width="1" height="1" fill="currentColor"/><rect x="9" y="11" width="1" height="1" fill="currentColor"/><rect x="9" y="11" width="1" height="1" fill="currentColor"/><rect x="9" y="12" width="1" height="1" fill="currentColor"/><rect x="9" y="12" width="1" height="1" fill="currentColor"/><rect x="10" y="11" width="1" height="1" fill="currentColor"/><rect x="10" y="11" width="1" height="1" fill="currentColor"/><rect x="11" y="10" width="1" height="1" fill="currentColor"/><rect x="11" y="10" width="1" height="1" fill="currentColor"/><rect x="12" y="9" width="1" height="1" fill="currentColor"/><rect x="12" y="9" width="1" height="1" fill="currentColor"/><rect x="7" y="10" width="1" height="1" fill="currentColor"/><rect x="7" y="10" width="1" height="1" fill="currentColor"/><rect x="6" y="9" width="1" height="1" fill="currentColor"/><rect x="6" y="9" width="1" height="1" fill="currentColor"/><polygon points="18 4 18 16 10.96 16 10.04 16 1 16 1 4 0 4 0 17 9.04 17 9.96 17 19 17 19 4 18 4" fill="currentColor"/></svg>