<svg xmlns="http://www.w3.org/2000/svg" xmlns:xlink="http://www.w3.org/1999/xlink" viewBox="0 0 17 13"><path d="M13.89,2.28a.5.5,0,0,0-.35.14l-5,5-5-5a.5.5,0,0,0-.35-.14.54.54,0,0,0-.36.14.51.51,0,0,0,0,.71l5.4,5.39a.48.48,0,0,0,.7,0l5.4-5.39a.51.51,0,0,0,0-.71.54.54,0,0,0-.36-.14" transform="translate(0)" fill="currentColor"/><path d="M5.33,9H3.11a.5.5,0,1,0,0,1H5.33a.5.5,0,0,0,0-1" transform="translate(0)" fill="currentColor"/><path d="M15.48,1a.52.52,0,0,1,.52.52v10a.52.52,0,0,1-.52.52h-14A.52.52,0,0,1,1,11.48v-10A.52.52,0,0,1,1.52,1h14m0-1h-14A1.52,1.52,0,0,0,0,1.52v10A1.52,1.52,0,0,0,1.52,13h14A1.52,1.52,0,0,0,17,11.48v-10A1.52,1.52,0,0,0,15.48,0" transform="translate(0)" fill="currentColor"/></svg>