<svg xmlns="http://www.w3.org/2000/svg" viewBox="0 0 19.22 19"><path d="M6.92,14.5l-.32-.31L17.1,3.7l.7.7L7.31,14.9Zm-1.73-.31,1,1,1.1,1.1L19.22,4.4,17.1,2.28Z" fill="currentColor"/><rect y="4" width="1" height="1" fill="currentColor"/><rect y="4" width="1" height="1" fill="currentColor"/><rect x="1" y="3" width="1" height="1" fill="currentColor"/><rect x="1" y="3" width="1" height="1" fill="currentColor"/><rect x="2" y="2" width="1" height="1" fill="currentColor"/><rect x="2" y="2" width="1" height="1" fill="currentColor"/><rect x="3" y="1" width="1" height="1" fill="currentColor"/><rect x="3" y="1" width="1" height="1" fill="currentColor"/><rect x="4" width="1" height="1" fill="currentColor"/><rect x="4" width="1" height="1" fill="currentColor"/><rect y="5" width="6" height="1" fill="currentColor"/><rect y="5" width="6" height="1" fill="currentColor"/><rect x="5" width="1" height="5" fill="currentColor"/><polygon points="5 0 5 1 15 1 15 2.96 16 1.97 16 0 5 0" fill="currentColor"/><polygon points="0 5 0 19 16 19 16 9.04 15 10.04 15 18 1 18 1 5 0 5" fill="currentColor"/><polygon points="5 8 5 9 8.96 9 9.96 8 5 8" fill="currentColor"/><polygon points="5 8 5 9 8.96 9 9.96 8 5 8" fill="currentColor"/><polygon points="5 11 5 12 5.96 12 6.96 11 5 11" fill="currentColor"/><polygon points="5 11 5 12 5.96 12 6.96 11 5 11" fill="currentColor"/></svg>