<svg xmlns="http://www.w3.org/2000/svg" viewBox="0 0 16 19"><rect y="4" width="1" height="1" fill="currentColor"/><rect y="4" width="1" height="1" fill="currentColor"/><rect x="1" y="3" width="1" height="1" fill="currentColor"/><rect x="1" y="3" width="1" height="1" fill="currentColor"/><rect x="2" y="2" width="1" height="1" fill="currentColor"/><rect x="2" y="2" width="1" height="1" fill="currentColor"/><rect x="3" y="1" width="1" height="1" fill="currentColor"/><rect x="3" y="1" width="1" height="1" fill="currentColor"/><rect x="4" width="1" height="1" fill="currentColor"/><rect x="4" width="1" height="1" fill="currentColor"/><rect x="5" y="8" width="6" height="1" fill="currentColor"/><rect x="5" y="8" width="6" height="1" fill="currentColor"/><rect y="5" width="6" height="1" fill="currentColor"/><rect y="5" width="6" height="1" fill="currentColor"/><rect x="5" width="1" height="5" fill="currentColor"/><rect x="5" y="11" width="6" height="1" fill="currentColor"/><rect x="5" y="11" width="6" height="1" fill="currentColor"/><polygon points="5 0 5 1 15 1 15 18 1 18 1 5 0 5 0 19 16 19 16 0 5 0" fill="currentColor"/></svg>