<svg xmlns="http://www.w3.org/2000/svg" viewBox="0 0 19 19"><rect y="4" width="1" height="1" fill="currentColor"/><rect y="4" width="1" height="1" fill="currentColor"/><rect x="1" y="3" width="1" height="1" fill="currentColor"/><rect x="1" y="3" width="1" height="1" fill="currentColor"/><rect x="2" y="2" width="1" height="1" fill="currentColor"/><rect x="2" y="2" width="1" height="1" fill="currentColor"/><rect x="3" y="1" width="1" height="1" fill="currentColor"/><rect x="3" y="1" width="1" height="1" fill="currentColor"/><rect x="4" width="1" height="1" fill="currentColor"/><rect x="4" width="1" height="1" fill="currentColor"/><rect x="5" y="8" width="6" height="1" fill="currentColor"/><rect x="5" y="8" width="6" height="1" fill="currentColor"/><rect y="5" width="6" height="1" fill="currentColor"/><rect y="5" width="6" height="1" fill="currentColor"/><rect x="5" width="1" height="5" fill="currentColor"/><rect x="5" y="11" width="6" height="1" fill="currentColor"/><rect x="5" y="11" width="6" height="1" fill="currentColor"/><rect x="15" y="9" width="1" height="8" fill="currentColor"/><rect x="14" y="17" width="1" height="1" fill="currentColor"/><rect x="14" y="17" width="1" height="1" fill="currentColor"/><rect x="15" y="17" width="1" height="1" fill="currentColor"/><rect x="15" y="17" width="1" height="1" fill="currentColor"/><rect x="15" y="18" width="1" height="1" fill="currentColor"/><rect x="15" y="18" width="1" height="1" fill="currentColor"/><rect x="16" y="17" width="1" height="1" fill="currentColor"/><rect x="16" y="17" width="1" height="1" fill="currentColor"/><rect x="17" y="16" width="1" height="1" fill="currentColor"/><rect x="17" y="16" width="1" height="1" fill="currentColor"/><rect x="18" y="15" width="1" height="1" fill="currentColor"/><rect x="18" y="15" width="1" height="1" fill="currentColor"/><rect x="15" y="7" width="1" height="1" fill="currentColor"/><rect x="15" y="7" width="1" height="1" fill="currentColor"/><rect x="15" y="5" width="1" height="1" fill="currentColor"/><rect x="15" y="5" width="1" height="1" fill="currentColor"/><rect x="13" y="16" width="1" height="1" fill="currentColor"/><rect x="13" y="16" width="1" height="1" fill="currentColor"/><rect x="12" y="15" width="1" height="1" fill="currentColor"/><rect x="12" y="15" width="1" height="1" fill="currentColor"/><polygon points="0 5 0 19 13 19 13 18 1 18 1 5 0 5" fill="currentColor"/><polygon points="5 0 5 1 15 1 15 4 16 4 16 0 5 0" fill="currentColor"/></svg>