<svg xmlns="http://www.w3.org/2000/svg" xmlns:xlink="http://www.w3.org/1999/xlink" viewBox="0 0 21.7 20.37"><path d="M10.51,20.09C8,18,2.29,13.16,1.28,11.49a7.47,7.47,0,0,1-1-6.07A7.41,7.41,0,0,1,3.8.74a8.08,8.08,0,0,1,7.05.18,8.08,8.08,0,0,1,7-.18,7.38,7.38,0,0,1,3.56,4.68,7.47,7.47,0,0,1-1,6.07c-1,1.67-6.75,6.54-9.23,8.6l-.33.28Zm.34-1,.07,0c3.8-3.17,7.91-6.82,8.63-8h0l.05-.1h0a6.45,6.45,0,0,0,.88-5.24,6.3,6.3,0,0,0-3-4,7.07,7.07,0,0,0-6.38.28L10.85,2l-.22-.11a7.07,7.07,0,0,0-6.38-.28,6.33,6.33,0,0,0-3,4,6.49,6.49,0,0,0,.89,5.24h0l.06.1h0c.71,1.2,4.82,4.84,8.62,8Z" fill="currentColor" /><path d="M12,15.25v1.33c1.94-1.68,4.1-3.61,5.35-5l-.7-.7C15.67,12,14,13.56,12,15.25" fill="currentColor" /></svg>