<svg xmlns="http://www.w3.org/2000/svg" viewBox="0 0 18 19"><rect x="3" y="9" width="15" height="1" fill="currentColor"/><rect x="3" y="9" width="15" height="1" fill="currentColor"/><rect width="1" height="4" fill="currentColor"/><rect x="2" y="8" width="1" height="1" fill="currentColor"/><rect x="2" y="8" width="1" height="1" fill="currentColor"/><rect x="2" y="9" width="1" height="1" fill="currentColor"/><rect x="2" y="9" width="1" height="1" fill="currentColor"/><rect x="1" y="9" width="1" height="1" fill="currentColor"/><rect x="1" y="9" width="1" height="1" fill="currentColor"/><rect x="2" y="10" width="1" height="1" fill="currentColor"/><rect x="2" y="10" width="1" height="1" fill="currentColor"/><rect x="3" y="11" width="1" height="1" fill="currentColor"/><rect x="3" y="11" width="1" height="1" fill="currentColor"/><rect x="4" y="12" width="1" height="1" fill="currentColor"/><rect x="4" y="12" width="1" height="1" fill="currentColor"/><rect x="3" y="7" width="1" height="1" fill="currentColor"/><rect x="3" y="7" width="1" height="1" fill="currentColor"/><rect x="4" y="6" width="1" height="1" fill="currentColor"/><rect x="4" y="6" width="1" height="1" fill="currentColor"/><polygon points="0 0 0 1 15 1 15 10.04 15 10.96 15 18 0 18 0 19 16 19 16 9.96 16 9.04 16 0 0 0" fill="currentColor"/></svg>