<svg xmlns="http://www.w3.org/2000/svg" xmlns:xlink="http://www.w3.org/1999/xlink" viewBox="0 0 17 22"><path d="M10.3,1A2.7,2.7,0,0,1,13,3.7V9H4V3.7A2.7,2.7,0,0,1,6.7,1h3.6m0-1H6.7A3.7,3.7,0,0,0,3,3.7V10H14V3.7A3.7,3.7,0,0,0,10.3,0"/><rect y="9" width="17" height="1"/><rect x="3" y="12" width="3" height="1" fill="currentColor"/><rect x="3" y="12" width="3" height="1"/><rect x="3" y="15" width="3" height="1" fill="currentColor"/><rect x="3" y="15" width="3" height="1"/><rect x="3" y="18" width="3" height="1" fill="currentColor"/><rect x="3" y="18" width="3" height="1"/><polygon points="16 20.91 1 20.91 1 10 0 10 0 22 17 22 17 10 16 10 16 20.91"/></svg>