<svg xmlns="http://www.w3.org/2000/svg" xmlns:xlink="http://www.w3.org/1999/xlink" viewBox="0 0 16.54 17.14"><path d="M15.07,13.63l-3.13-3a.78.78,0,0,0-.49-.21.81.81,0,0,0-.57.19l-.75.71A1.73,1.73,0,0,1,8,11.07L5.79,8.71a1.46,1.46,0,0,1-.12-2c.2-.17.68-.71.88-.88a.8.8,0,0,0,.26-.55.82.82,0,0,0-.19-.57L3.88,1.12a.86.86,0,0,0-.6-.33.82.82,0,0,0-.67.29l0,.06C1.89,2,.47,3.07.5,5c.05,3.88,7,11.46,10.43,11.68C12,16.7,13,16.44,15,14.86a.81.81,0,0,0,.09-1.23Z" fill="none" stroke="currentColor" stroke-linejoin="round"/><path d="M10.3,0a.55.55,0,0,0-.51.4.53.53,0,0,0,.37.66l.12,0a7.2,7.2,0,0,1,5.19,6.3.53.53,0,0,0,.53.49h.05a.54.54,0,0,0,.47-.39.65.65,0,0,0,0-.2A8.26,8.26,0,0,0,10.59.06l-.14,0L10.3,0" fill="currentColor"/><path d="M10.15,2.85a.53.53,0,0,0-.49.33.54.54,0,0,0,.29.7,4.49,4.49,0,0,1,2.72,3.33.53.53,0,0,0,.52.44h.1a.53.53,0,0,0,.42-.38.52.52,0,0,0,0-.25,5.54,5.54,0,0,0-3.36-4.12.52.52,0,0,0-.21,0" fill="currentColor"/></svg>