<svg xmlns="http://www.w3.org/2000/svg" viewBox="0 0 21 22"><path d="M11,8h9V21H11ZM10,22H21V7H10Z" fill="currentColor"/><polygon points="0 0 0 22 8 22 8 21 1 21 1 1 14 1 14 5 15 5 15 0 0 0" fill="currentColor"/><rect x="13" y="11" width="2" height="1" fill="currentColor"/><rect x="3" y="5" width="1" height="9" fill="currentColor"/><rect x="5" y="5" width="1" height="9" fill="currentColor"/><rect x="7" y="5" width="1" height="9" fill="currentColor"/><rect x="13" y="14" width="2" height="1" fill="currentColor"/><rect x="13" y="17" width="2" height="1" fill="currentColor"/><rect x="16" y="11" width="2" height="1" fill="currentColor"/><rect x="16" y="14" width="2" height="1" fill="currentColor"/><rect x="16" y="17" width="2" height="1" fill="currentColor"/></svg>