<svg xmlns="http://www.w3.org/2000/svg" xmlns:xlink="http://www.w3.org/1999/xlink" viewBox="0 0 14.54 14.89"><path d="M13.18,12.17,10.34,9.48a.68.68,0,0,0-.44-.19.78.78,0,0,0-.52.17l-.68.65a1.56,1.56,0,0,1-1.94-.26l-2-2.13a1.32,1.32,0,0,1-.11-1.81c.18-.16.62-.64.8-.8a.73.73,0,0,0,.06-1L3.06.86a.75.75,0,0,0-.55-.3.73.73,0,0,0-.6.26l0,.06C1.26,1.6,0,2.62,0,4.32.05,7.83,6.36,14.68,9.43,14.88c1,.06,1.89-.17,3.66-1.6a.71.71,0,0,0,.3-.55.74.74,0,0,0-.21-.56" fill="currentColor"/><path d="M14.52,7.49a.54.54,0,0,1-.47.39.55.55,0,0,1-.58-.49,7.19,7.19,0,0,0-5.18-6.3l-.13,0A.55.55,0,0,1,7.79.39.55.55,0,0,1,8.45,0l.14,0a8.26,8.26,0,0,1,5.95,7.23.65.65,0,0,1,0,.2" fill="currentColor"/><path d="M11.71,7.26a.53.53,0,0,1-.41.38.54.54,0,0,1-.63-.43A4.49,4.49,0,0,0,8,3.88a.54.54,0,1,1,.41-1A5.52,5.52,0,0,1,11.72,7a.42.42,0,0,1,0,.25" fill="currentColor"/></svg>