<svg xmlns="http://www.w3.org/2000/svg" xmlns:xlink="http://www.w3.org/1999/xlink" viewBox="0 0 17 17"><path d="M8.5,1A7.5,7.5,0,1,1,1,8.5,7.5,7.5,0,0,1,8.5,1m0-1A8.5,8.5,0,1,0,17,8.5,8.51,8.51,0,0,0,8.5,0" fill="currentColor"/><polygon points="6.63 6.63 8.5 8.5 10.62 6.38 8.5 8.5 10.4 10.4 6.63 6.63" fill="currentColor"/><polygon points="10.62 5.67 8.5 7.79 6.38 5.67 5.67 6.38 7.79 8.5 5.67 10.62 6.38 11.33 8.5 9.21 10.62 11.33 11.33 10.62 9.21 8.5 11.33 6.38 10.62 5.67" fill="currentColor"/></svg>