<svg xmlns="http://www.w3.org/2000/svg" xmlns:xlink="http://www.w3.org/1999/xlink" viewBox="0 0 18.92 19.16"><path d="M14.24,5.14A4.71,4.71,0,0,1,9.46,9.78,4.72,4.72,0,0,1,4.67,5.14,4.72,4.72,0,0,1,9.46.5,4.71,4.71,0,0,1,14.24,5.14Z" fill="none" stroke="currentColor" stroke-miterlimit="10"/><polygon points="15.42 8.53 15.42 11.53 18.42 11.53 15.42 11.53 15.42 14.53 15.42 8.53" fill="currentColor"/><polygon points="15.92 8.03 14.92 8.03 14.92 11.03 11.92 11.03 11.92 12.03 14.92 12.03 14.92 15.03 15.92 15.03 15.92 12.03 18.92 12.03 18.92 11.03 15.92 11.03 15.92 8.03" fill="currentColor" /><path d="M16.92,14.53l.28.36a2.47,2.47,0,0,1,.58,2.43,2,2,0,0,1-1.87.84H3a2,2,0,0,1-1.87-.84,2.44,2.44,0,0,1,.58-2.43l.93-1.2A4.88,4.88,0,0,1,6.18,12h4.74V11H6.18a5.85,5.85,0,0,0-4.32,2.05l-.93,1.2a3.34,3.34,0,0,0-.69,3.48A2.87,2.87,0,0,0,3,19.16h12.9a2.85,2.85,0,0,0,2.76-1.4A3.36,3.36,0,0,0,18,14.28l-.93-1.2L17,13h-.09Z" fill="currentColor" /></svg>