<svg xmlns="http://www.w3.org/2000/svg" viewBox="0 0 20 19"><path d="M1,1H19V14H1ZM0,15H20V0H0Z" fill="currentColor"/><path d="M6,8H4V7H6ZM7,6H3V9H7Z" fill="currentColor"/><path d="M11,8H9V7h2Zm1-2H8V9h4Z" fill="currentColor"/><path d="M16,8H14V7h2Zm1-2H13V9h4Z" fill="currentColor"/><path d="M7,15h6v3H7ZM6,19h8V14H6Z" fill="currentColor"/><rect x="3" y="3" width="14" height="1" fill="currentColor"/><rect x="9" y="12" width="2" height="1" fill="currentColor"/><rect x="3" y="18" width="14" height="1" fill="currentColor"/></svg>