<svg xmlns="http://www.w3.org/2000/svg" xmlns:xlink="http://www.w3.org/1999/xlink" viewBox="0 0 20.84 21.06"><path d="M15.69,5.61a5.19,5.19,0,0,1-5.27,5.11A5.19,5.19,0,0,1,5.15,5.61,5.19,5.19,0,0,1,10.42.5,5.19,5.19,0,0,1,15.69,5.61Z" fill="none" stroke="currentColor" stroke-miterlimit="10"/><path d="M17.53,21.06H3.31a3.13,3.13,0,0,1-3-1.55A3.68,3.68,0,0,1,1,15.68l1-1.32A6.43,6.43,0,0,1,6.8,12.11H14a6.43,6.43,0,0,1,4.75,2.25l1,1.32a3.68,3.68,0,0,1,.75,3.83,3.13,3.13,0,0,1-3,1.55M6.8,13.11a5.46,5.46,0,0,0-4,1.86l-1,1.32a2.83,2.83,0,0,0-.65,2.78,2.22,2.22,0,0,0,2.15,1H17.53a2.2,2.2,0,0,0,2.14-1A2.8,2.8,0,0,0,19,16.29L18,15a5.46,5.46,0,0,0-4-1.86Z" fill="currentColor" /><polygon points="13.78 13.02 13.07 12.31 10.42 14.96 7.77 12.31 7.06 13.02 10.42 16.38 10.42 16.38 10.42 16.38 13.78 13.02" fill="currentColor" /></svg>