<svg xmlns="http://www.w3.org/2000/svg" xmlns:xlink="http://www.w3.org/1999/xlink" viewBox="0 0 21.52 12.9"><path d="M11.49,12.89c.72,0,.72-1,.72-1.43A1.54,1.54,0,0,1,13.64,10c.72,0,1.94,1.23,2.87,2.15.71.71.71.71,1.43.71h2.15a1.44,1.44,0,0,0,1.43-1.43c0-.45-.49-1.21-2.15-2.86-1.43-1.44-2.17-.7,0-3.58,1.32-1.77,2.28-3.36,2.12-3.82S17.66.06,17.22.72A27.77,27.77,0,0,0,15.07,4.3c-.71,1.43-.79,2.15-1.43,2.15s-.72-1.39-.72-2.15c0-2.37.35-4-.71-4.3H10.06A4.13,4.13,0,0,0,7.91.72s-.89.69-.72.71,1.44-.29,1.44.72V3.58s0,2.87-.72,2.87-2.15-2.87-3.58-5C3.76.59,3.61.72,2.89.72S1.46.75.75.75s-.81.45-.72.68C1.46,5,2.49,7.26,5.21,10.1c2.5,2.6,4.17,2.73,5.56,2.79.36,0,0,0,.72,0" fill="currentColor"/></svg>