<svg xmlns="http://www.w3.org/2000/svg" xmlns:xlink="http://www.w3.org/1999/xlink" viewBox="0 0 18.1 18.19"><path d="M15.47,2.64A9,9,0,0,0,.08,9a8.91,8.91,0,0,0,1.2,4.51L0,18.19l4.78-1.25A9.1,9.1,0,0,0,9.09,18h0A9,9,0,0,0,15.47,2.64m-2,9.59A2.35,2.35,0,0,1,12,13.31a3.23,3.23,0,0,1-1.42-.09c-.33-.11-.75-.25-1.28-.48a10,10,0,0,1-3.85-3.4A4.4,4.4,0,0,1,4.51,7,2.52,2.52,0,0,1,5.3,5.13a.83.83,0,0,1,.6-.28h.43c.14,0,.32-.05.51.38s.64,1.56.69,1.68a.41.41,0,0,1,0,.39,1.25,1.25,0,0,1-.23.38c-.11.13-.23.29-.33.39a.32.32,0,0,0-.1.46A6.46,6.46,0,0,0,8.14,10.1,6.11,6.11,0,0,0,10,11.22c.23.11.36.09.49-.06s.56-.65.71-.88.3-.19.51-.11,1.31.62,1.54.73a1.23,1.23,0,0,1,.43.26,1.82,1.82,0,0,1-.13,1.07" fill="currentColor" fill-rule="evenodd"/></svg>