<svg width="0" height="0" class="hidden">
  <symbol xmlns="http://www.w3.org/2000/svg" viewBox="0 0 4.24 8.48" id="ic_arr_hor">
    <polygon points="4.24 0 0 4.24 4.24 8.48 4.24 0" fill="currentColor"></polygon>
  </symbol>
  <symbol xmlns="http://www.w3.org/2000/svg" viewBox="0 0 9.9 5.66" id="ic_arr_ver">
    <rect x="2.33" y="-0.67" width="1" height="7" transform="translate(-1.17 2.83) rotate(-45)" fill="currentColor"></rect>
    <rect x="3.57" y="2.33" width="7" height="1" transform="translate(0.07 5.83) rotate(-45)" fill="currentColor"></rect>
  </symbol>
  <symbol xmlns="http://www.w3.org/2000/svg" viewBox="0 0 23 14.14" id="ic_arrow_hor">
    <rect x="14.11" y="9.75" width="10" height="1" transform="translate(-1.65 16.51) rotate(-45)" fill="currentColor"></rect>
    <rect x="18.61" y="-1.11" width="1" height="10" transform="translate(2.84 14.64) rotate(-44.96)" fill="currentColor"></rect>
    <rect y="6.57" width="22" height="1" fill="currentColor"></rect>
  </symbol>
  <symbol xmlns="http://www.w3.org/2000/svg" xmlns:xlink="http://www.w3.org/1999/xlink" viewBox="0 0 23.01 21.32" id="ic_cart">
    <path d="M11.71,18.9A1.92,1.92,0,1,1,9.79,17,1.92,1.92,0,0,1,11.71,18.9Z" fill="none" stroke="currentColor" stroke-linecap="round" stroke-linejoin="round"></path>
    <path d="M19.11,18.9A1.92,1.92,0,1,1,17.19,17,1.92,1.92,0,0,1,19.11,18.9Z" fill="none" stroke="currentColor" stroke-linecap="round" stroke-linejoin="round"></path>
    <polyline points="0.5 0.5 3.96 0.5 7.82 14.55 19.84 14.55 22.51 4.67 9.21 4.67" fill="none" stroke="currentColor" stroke-linecap="round" stroke-linejoin="round"></polyline>
  </symbol>
  <symbol xmlns="http://www.w3.org/2000/svg" xmlns:xlink="http://www.w3.org/1999/xlink" viewBox="0 0 26.47 24.55" id="ic_cart2">
    <path d="M13.47,21.63a2.18,2.18,0,1,1-2.18-2.18A2.18,2.18,0,0,1,13.47,21.63Z" fill="none" stroke="currentColor" stroke-linecap="round" stroke-linejoin="round" stroke-width="1.5"></path>
    <circle cx="19.69" cy="21.63" r="2.18" fill="none" stroke="currentColor" stroke-linecap="round" stroke-linejoin="round" stroke-width="1.5"></circle>
    <path d="M15.37,13.39a.71.71,0,0,1-.53-.22l-4-4a.75.75,0,0,1,1.06-1.06l3.45,3.44,8-7.95a.75.75,0,1,1,1.06,1.06L15.9,13.17a.74.74,0,0,1-.53.22" fill="currentColor"></path>
    <path d="M26.31,5A.79.79,0,0,0,26,4.79a2.18,2.18,0,0,1-.56,1l-.79.79-2.53,9.4H9.62L5.4.55A.76.76,0,0,0,4.67,0H.75A.76.76,0,0,0,0,.75a.76.76,0,0,0,.75.75H4.1L8.33,16.89a.75.75,0,0,0,.72.55H22.69a.76.76,0,0,0,.73-.56l3-11.21A.76.76,0,0,0,26.31,5" fill="currentColor"></path>
    <path d="M10.63,4.73a.75.75,0,1,0,0,1.5h8l1.5-1.5Z" fill="currentColor"></path>
  </symbol>
  <symbol xmlns="http://www.w3.org/2000/svg" viewBox="0 0 14 14" id="ic_catalog">
    <rect width="6" height="6" fill="currentColor"></rect>
    <rect x="8" width="6" height="6" fill="currentColor"></rect>
    <rect y="8" width="6" height="6" fill="currentColor"></rect>
    <rect x="8" y="8" width="6" height="6" fill="currentColor"></rect>
  </symbol>
  <symbol xmlns="http://www.w3.org/2000/svg" viewBox="0 0 9.19 7.07" id="ic_check">
    <rect x="1.97" y="2.6" width="1" height="4" transform="translate(-2.53 3.1) rotate(-45)" fill="currentColor"></rect>
    <rect x="1.47" y="2.1" width="2" height="5" transform="translate(-2.53 3.1) rotate(-45)"></rect>
    <rect x="2.16" y="3.04" width="7" height="1" transform="translate(-0.84 5.04) rotate(-45.04)" fill="currentColor"></rect>
    <rect x="1.66" y="2.54" width="8" height="2" transform="translate(-0.84 5.04) rotate(-45)"></rect>
  </symbol>
  <symbol xmlns="http://www.w3.org/2000/svg" viewBox="0 0 17 17" id="ic_close">
    <rect y="16" width="1" height="1" fill="currentColor"></rect>
    <rect y="16" width="1" height="1"></rect>
    <rect x="1" y="15" width="1" height="1" fill="currentColor"></rect>
    <rect x="1" y="15" width="1" height="1"></rect>
    <rect x="2" y="14" width="1" height="1" fill="currentColor"></rect>
    <rect x="2" y="14" width="1" height="1"></rect>
    <rect x="3" y="13" width="1" height="1" fill="currentColor"></rect>
    <rect x="3" y="13" width="1" height="1"></rect>
    <rect x="4" y="12" width="1" height="1" fill="currentColor"></rect>
    <rect x="4" y="12" width="1" height="1"></rect>
    <rect x="5" y="11" width="1" height="1" fill="currentColor"></rect>
    <rect x="5" y="11" width="1" height="1"></rect>
    <rect x="6" y="10" width="1" height="1" fill="currentColor"></rect>
    <rect x="6" y="10" width="1" height="1"></rect>
    <rect x="7" y="9" width="1" height="1" fill="currentColor"></rect>
    <rect x="7" y="9" width="1" height="1"></rect>
    <rect x="9" y="7" width="1" height="1" fill="currentColor"></rect>
    <rect x="9" y="7" width="1" height="1"></rect>
    <rect x="10" y="6" width="1" height="1" fill="currentColor"></rect>
    <rect x="10" y="6" width="1" height="1"></rect>
    <rect x="11" y="5" width="1" height="1" fill="currentColor"></rect>
    <rect x="11" y="5" width="1" height="1"></rect>
    <rect x="12" y="4" width="1" height="1" fill="currentColor"></rect>
    <rect x="12" y="4" width="1" height="1"></rect>
    <rect x="13" y="3" width="1" height="1" fill="currentColor"></rect>
    <rect x="13" y="3" width="1" height="1"></rect>
    <rect x="14" y="2" width="1" height="1" fill="currentColor"></rect>
    <rect x="14" y="2" width="1" height="1"></rect>
    <rect x="15" y="1" width="1" height="1" fill="currentColor"></rect>
    <rect x="15" y="1" width="1" height="1"></rect>
    <rect x="16" width="1" height="1" fill="currentColor"></rect>
    <rect x="16" width="1" height="1"></rect>
    <rect x="16" y="16" width="1" height="1" fill="currentColor"></rect>
    <rect x="16" y="16" width="1" height="1"></rect>
    <rect x="15" y="15" width="1" height="1" fill="currentColor"></rect>
    <rect x="15" y="15" width="1" height="1"></rect>
    <rect x="14" y="14" width="1" height="1" fill="currentColor"></rect>
    <rect x="14" y="14" width="1" height="1"></rect>
    <rect x="13" y="13" width="1" height="1" fill="currentColor"></rect>
    <rect x="13" y="13" width="1" height="1"></rect>
    <rect x="12" y="12" width="1" height="1" fill="currentColor"></rect>
    <rect x="12" y="12" width="1" height="1"></rect>
    <rect x="11" y="11" width="1" height="1" fill="currentColor"></rect>
    <rect x="11" y="11" width="1" height="1"></rect>
    <rect x="10" y="10" width="1" height="1" fill="currentColor"></rect>
    <rect x="10" y="10" width="1" height="1"></rect>
    <rect x="9" y="9" width="1" height="1" fill="currentColor"></rect>
    <rect x="9" y="9" width="1" height="1"></rect>
    <rect x="8" y="8" width="1" height="1" fill="currentColor"></rect>
    <rect x="8" y="8" width="1" height="1"></rect>
    <rect x="7" y="7" width="1" height="1" fill="currentColor"></rect>
    <rect x="7" y="7" width="1" height="1"></rect>
    <rect x="6" y="6" width="1" height="1" fill="currentColor"></rect>
    <rect x="6" y="6" width="1" height="1"></rect>
    <rect x="5" y="5" width="1" height="1" fill="currentColor"></rect>
    <rect x="5" y="5" width="1" height="1"></rect>
    <rect x="4" y="4" width="1" height="1" fill="currentColor"></rect>
    <rect x="4" y="4" width="1" height="1"></rect>
    <rect x="3" y="3" width="1" height="1" fill="currentColor"></rect>
    <rect x="3" y="3" width="1" height="1"></rect>
    <rect x="2" y="2" width="1" height="1" fill="currentColor"></rect>
    <rect x="2" y="2" width="1" height="1"></rect>
    <rect x="1" y="1" width="1" height="1" fill="currentColor"></rect>
    <rect x="1" y="1" width="1" height="1"></rect>
    <rect width="1" height="1" fill="currentColor"></rect>
    <rect width="1" height="1"></rect>
  </symbol>
  <symbol xmlns="http://www.w3.org/2000/svg" xmlns:xlink="http://www.w3.org/1999/xlink" viewBox="0 0 15.46 15.46" id="ic_consult">
    <path d="M7.73,0a7.73,7.73,0,1,0,7.73,7.73A7.73,7.73,0,0,0,7.73,0m0,12.78h0a.84.84,0,0,1,0-1.68h0a.84.84,0,1,1,0,1.68m3-6.18a1.7,1.7,0,0,1-.33.64,4.87,4.87,0,0,1-.42.49c-.13.12-.32.3-.59.53a3.56,3.56,0,0,0-.79.82,2.8,2.8,0,0,0-.14,1.1H7a4.47,4.47,0,0,1,.18-1.39,2.58,2.58,0,0,1,.73-1,1.82,1.82,0,0,1,.26-.23l.27-.25L8.65,7a1.36,1.36,0,0,0,.22-.27c0-.07.09-.16.14-.27a1.1,1.1,0,0,0,.12-.33,1.9,1.9,0,0,0,0-.35,1.26,1.26,0,0,0-.38-1,1.37,1.37,0,0,0-1-.36c-1,0-1.55.62-1.59,1.87H4.69a3.54,3.54,0,0,1,.85-2.32,3,3,0,0,1,2.28-.84A3.09,3.09,0,0,1,10,3.93a2.41,2.41,0,0,1,.81,1.89,3.1,3.1,0,0,1-.09.78" fill="currentColor"></path>
  </symbol>
  <symbol xmlns="http://www.w3.org/2000/svg" viewBox="0 0 19 17" id="ic_download">
    <rect x="9" width="1" height="11" fill="currentColor"></rect>
    <rect y="4" width="4" height="1" fill="currentColor"></rect>
    <rect y="4" width="4" height="1" fill="currentColor"></rect>
    <rect x="15" y="4" width="4" height="1" fill="currentColor"></rect>
    <rect x="15" y="4" width="4" height="1" fill="currentColor"></rect>
    <rect x="8" y="11" width="1" height="1" fill="currentColor"></rect>
    <rect x="8" y="11" width="1" height="1" fill="currentColor"></rect>
    <rect x="9" y="11" width="1" height="1" fill="currentColor"></rect>
    <rect x="9" y="11" width="1" height="1" fill="currentColor"></rect>
    <rect x="9" y="12" width="1" height="1" fill="currentColor"></rect>
    <rect x="9" y="12" width="1" height="1" fill="currentColor"></rect>
    <rect x="10" y="11" width="1" height="1" fill="currentColor"></rect>
    <rect x="10" y="11" width="1" height="1" fill="currentColor"></rect>
    <rect x="11" y="10" width="1" height="1" fill="currentColor"></rect>
    <rect x="11" y="10" width="1" height="1" fill="currentColor"></rect>
    <rect x="12" y="9" width="1" height="1" fill="currentColor"></rect>
    <rect x="12" y="9" width="1" height="1" fill="currentColor"></rect>
    <rect x="7" y="10" width="1" height="1" fill="currentColor"></rect>
    <rect x="7" y="10" width="1" height="1" fill="currentColor"></rect>
    <rect x="6" y="9" width="1" height="1" fill="currentColor"></rect>
    <rect x="6" y="9" width="1" height="1" fill="currentColor"></rect>
    <polygon points="18 4 18 16 10.96 16 10.04 16 1 16 1 4 0 4 0 17 9.04 17 9.96 17 19 17 19 4 18 4" fill="currentColor"></polygon>
  </symbol>
  <symbol xmlns="http://www.w3.org/2000/svg" viewBox="0 0 19.22 19" id="ic_edit">
    <path d="M6.92,14.5l-.32-.31L17.1,3.7l.7.7L7.31,14.9Zm-1.73-.31,1,1,1.1,1.1L19.22,4.4,17.1,2.28Z" fill="currentColor"></path>
    <rect y="4" width="1" height="1" fill="currentColor"></rect>
    <rect y="4" width="1" height="1" fill="currentColor"></rect>
    <rect x="1" y="3" width="1" height="1" fill="currentColor"></rect>
    <rect x="1" y="3" width="1" height="1" fill="currentColor"></rect>
    <rect x="2" y="2" width="1" height="1" fill="currentColor"></rect>
    <rect x="2" y="2" width="1" height="1" fill="currentColor"></rect>
    <rect x="3" y="1" width="1" height="1" fill="currentColor"></rect>
    <rect x="3" y="1" width="1" height="1" fill="currentColor"></rect>
    <rect x="4" width="1" height="1" fill="currentColor"></rect>
    <rect x="4" width="1" height="1" fill="currentColor"></rect>
    <rect y="5" width="6" height="1" fill="currentColor"></rect>
    <rect y="5" width="6" height="1" fill="currentColor"></rect>
    <rect x="5" width="1" height="5" fill="currentColor"></rect>
    <polygon points="5 0 5 1 15 1 15 2.96 16 1.97 16 0 5 0" fill="currentColor"></polygon>
    <polygon points="0 5 0 19 16 19 16 9.04 15 10.04 15 18 1 18 1 5 0 5" fill="currentColor"></polygon>
    <polygon points="5 8 5 9 8.96 9 9.96 8 5 8" fill="currentColor"></polygon>
    <polygon points="5 8 5 9 8.96 9 9.96 8 5 8" fill="currentColor"></polygon>
    <polygon points="5 11 5 12 5.96 12 6.96 11 5 11" fill="currentColor"></polygon>
    <polygon points="5 11 5 12 5.96 12 6.96 11 5 11" fill="currentColor"></polygon>
  </symbol>
  <symbol xmlns="http://www.w3.org/2000/svg" xmlns:xlink="http://www.w3.org/1999/xlink" viewBox="0 0 17 13" id="ic_email">
    <path d="M13.89,2.28a.5.5,0,0,0-.35.14l-5,5-5-5a.5.5,0,0,0-.35-.14.54.54,0,0,0-.36.14.51.51,0,0,0,0,.71l5.4,5.39a.48.48,0,0,0,.7,0l5.4-5.39a.51.51,0,0,0,0-.71.54.54,0,0,0-.36-.14" transform="translate(0)" fill="currentColor"></path>
    <path d="M5.33,9H3.11a.5.5,0,1,0,0,1H5.33a.5.5,0,0,0,0-1" transform="translate(0)" fill="currentColor"></path>
    <path d="M15.48,1a.52.52,0,0,1,.52.52v10a.52.52,0,0,1-.52.52h-14A.52.52,0,0,1,1,11.48v-10A.52.52,0,0,1,1.52,1h14m0-1h-14A1.52,1.52,0,0,0,0,1.52v10A1.52,1.52,0,0,0,1.52,13h14A1.52,1.52,0,0,0,17,11.48v-10A1.52,1.52,0,0,0,15.48,0" transform="translate(0)" fill="currentColor"></path>
  </symbol>
  <symbol xmlns="http://www.w3.org/2000/svg" xmlns:xlink="http://www.w3.org/1999/xlink" viewBox="0 0 21.7 20.37" id="ic_favorite">
    <path d="M10.51,20.09C8,18,2.29,13.16,1.28,11.49a7.47,7.47,0,0,1-1-6.07A7.41,7.41,0,0,1,3.8.74a8.08,8.08,0,0,1,7.05.18,8.08,8.08,0,0,1,7-.18,7.38,7.38,0,0,1,3.56,4.68,7.47,7.47,0,0,1-1,6.07c-1,1.67-6.75,6.54-9.23,8.6l-.33.28Zm.34-1,.07,0c3.8-3.17,7.91-6.82,8.63-8h0l.05-.1h0a6.45,6.45,0,0,0,.88-5.24,6.3,6.3,0,0,0-3-4,7.07,7.07,0,0,0-6.38.28L10.85,2l-.22-.11a7.07,7.07,0,0,0-6.38-.28,6.33,6.33,0,0,0-3,4,6.49,6.49,0,0,0,.89,5.24h0l.06.1h0c.71,1.2,4.82,4.84,8.62,8Z" fill="currentColor"></path>
    <path d="M12,15.25v1.33c1.94-1.68,4.1-3.61,5.35-5l-.7-.7C15.67,12,14,13.56,12,15.25" fill="currentColor"></path>
  </symbol>
  <symbol xmlns="http://www.w3.org/2000/svg" xmlns:xlink="http://www.w3.org/1999/xlink" viewBox="0 0 21.71 20.15" id="ic_favorite2">
    <path d="M21.47,5.3A7.21,7.21,0,0,0,18,.73,8,8,0,0,0,10.85,1,8,8,0,0,0,3.7.73,7.18,7.18,0,0,0,.24,5.3a7.28,7.28,0,0,0,1.05,6l-.06-.1c.85,1.61,7.58,7.27,9.62,9h0c2-1.7,8.76-7.36,9.62-9l-.06.1a7.32,7.32,0,0,0,1-6M12,16.4V15.08c1.94-1.69,3.66-3.28,4.65-4.34l.7.71C16.11,12.8,14,14.73,12,16.4" fill="currentColor"></path>
  </symbol>
  <symbol xmlns="http://www.w3.org/2000/svg" xmlns:xlink="http://www.w3.org/1999/xlink" viewBox="0 0 15.82 15.82" id="ic_fb">
    <path d="M13.42,0H2.4A2.41,2.41,0,0,0,0,2.4v11a2.41,2.41,0,0,0,2.4,2.4H5.62V9.27H3.33V7H5.62V5.13A3,3,0,0,1,8.84,1.92h1.83v2.3H9.76c-1,0-1.38.21-1.38.91V7h2.29l-.45,2.3H8.38v6.55h5a2.41,2.41,0,0,0,2.4-2.4V2.4A2.41,2.41,0,0,0,13.42,0" fill="currentColor"></path>
  </symbol>
  <symbol xmlns="http://www.w3.org/2000/svg" viewBox="0 0 19 19" id="ic_file">
    <rect y="4" width="1" height="1" fill="currentColor"></rect>
    <rect y="4" width="1" height="1" fill="currentColor"></rect>
    <rect x="1" y="3" width="1" height="1" fill="currentColor"></rect>
    <rect x="1" y="3" width="1" height="1" fill="currentColor"></rect>
    <rect x="2" y="2" width="1" height="1" fill="currentColor"></rect>
    <rect x="2" y="2" width="1" height="1" fill="currentColor"></rect>
    <rect x="3" y="1" width="1" height="1" fill="currentColor"></rect>
    <rect x="3" y="1" width="1" height="1" fill="currentColor"></rect>
    <rect x="4" width="1" height="1" fill="currentColor"></rect>
    <rect x="4" width="1" height="1" fill="currentColor"></rect>
    <rect x="5" y="8" width="6" height="1" fill="currentColor"></rect>
    <rect x="5" y="8" width="6" height="1" fill="currentColor"></rect>
    <rect y="5" width="6" height="1" fill="currentColor"></rect>
    <rect y="5" width="6" height="1" fill="currentColor"></rect>
    <rect x="5" width="1" height="5" fill="currentColor"></rect>
    <rect x="5" y="11" width="6" height="1" fill="currentColor"></rect>
    <rect x="5" y="11" width="6" height="1" fill="currentColor"></rect>
    <rect x="15" y="9" width="1" height="8" fill="currentColor"></rect>
    <rect x="14" y="17" width="1" height="1" fill="currentColor"></rect>
    <rect x="14" y="17" width="1" height="1" fill="currentColor"></rect>
    <rect x="15" y="17" width="1" height="1" fill="currentColor"></rect>
    <rect x="15" y="17" width="1" height="1" fill="currentColor"></rect>
    <rect x="15" y="18" width="1" height="1" fill="currentColor"></rect>
    <rect x="15" y="18" width="1" height="1" fill="currentColor"></rect>
    <rect x="16" y="17" width="1" height="1" fill="currentColor"></rect>
    <rect x="16" y="17" width="1" height="1" fill="currentColor"></rect>
    <rect x="17" y="16" width="1" height="1" fill="currentColor"></rect>
    <rect x="17" y="16" width="1" height="1" fill="currentColor"></rect>
    <rect x="18" y="15" width="1" height="1" fill="currentColor"></rect>
    <rect x="18" y="15" width="1" height="1" fill="currentColor"></rect>
    <rect x="15" y="7" width="1" height="1" fill="currentColor"></rect>
    <rect x="15" y="7" width="1" height="1" fill="currentColor"></rect>
    <rect x="15" y="5" width="1" height="1" fill="currentColor"></rect>
    <rect x="15" y="5" width="1" height="1" fill="currentColor"></rect>
    <rect x="13" y="16" width="1" height="1" fill="currentColor"></rect>
    <rect x="13" y="16" width="1" height="1" fill="currentColor"></rect>
    <rect x="12" y="15" width="1" height="1" fill="currentColor"></rect>
    <rect x="12" y="15" width="1" height="1" fill="currentColor"></rect>
    <polygon points="0 5 0 19 13 19 13 18 1 18 1 5 0 5" fill="currentColor"></polygon>
    <polygon points="5 0 5 1 15 1 15 4 16 4 16 0 5 0" fill="currentColor"></polygon>
  </symbol>
  <symbol xmlns="http://www.w3.org/2000/svg" viewBox="0 0 16 19" id="ic_file2">
    <rect y="4" width="1" height="1" fill="currentColor"></rect>
    <rect y="4" width="1" height="1" fill="currentColor"></rect>
    <rect x="1" y="3" width="1" height="1" fill="currentColor"></rect>
    <rect x="1" y="3" width="1" height="1" fill="currentColor"></rect>
    <rect x="2" y="2" width="1" height="1" fill="currentColor"></rect>
    <rect x="2" y="2" width="1" height="1" fill="currentColor"></rect>
    <rect x="3" y="1" width="1" height="1" fill="currentColor"></rect>
    <rect x="3" y="1" width="1" height="1" fill="currentColor"></rect>
    <rect x="4" width="1" height="1" fill="currentColor"></rect>
    <rect x="4" width="1" height="1" fill="currentColor"></rect>
    <rect x="5" y="8" width="6" height="1" fill="currentColor"></rect>
    <rect x="5" y="8" width="6" height="1" fill="currentColor"></rect>
    <rect y="5" width="6" height="1" fill="currentColor"></rect>
    <rect y="5" width="6" height="1" fill="currentColor"></rect>
    <rect x="5" width="1" height="5" fill="currentColor"></rect>
    <rect x="5" y="11" width="6" height="1" fill="currentColor"></rect>
    <rect x="5" y="11" width="6" height="1" fill="currentColor"></rect>
    <polygon points="5 0 5 1 15 1 15 18 1 18 1 5 0 5 0 19 16 19 16 0 5 0" fill="currentColor"></polygon>
  </symbol>
  <symbol xmlns="http://www.w3.org/2000/svg" xmlns:xlink="http://www.w3.org/1999/xlink" viewBox="0 0 15.82 15.82" id="ic_instagram">
    <path d="M7.91,5.36a2.56,2.56,0,1,0,2.58,2.55A2.57,2.57,0,0,0,7.91,5.36" fill="currentColor"></path>
    <path d="M11.84,0H4A4,4,0,0,0,0,3.94v7.94a4,4,0,0,0,4,3.94h7.85a4,4,0,0,0,4-3.94V3.94a4,4,0,0,0-4-3.94M7.91,12.44a4.53,4.53,0,1,1,4.58-4.53,4.56,4.56,0,0,1-4.58,4.53M12.65,4a1.16,1.16,0,1,1,1.17-1.15A1.16,1.16,0,0,1,12.65,4" fill="currentColor"></path>
  </symbol>
  <symbol xmlns="http://www.w3.org/2000/svg" xmlns:xlink="http://www.w3.org/1999/xlink" viewBox="0 0 14.39 18.12" id="ic_location">
    <path d="M7.2.5A6.7,6.7,0,0,0,.5,7.2C.5,12,7.2,17.62,7.2,17.62s6.7-5.88,6.7-10.42A6.7,6.7,0,0,0,7.2.5Zm0,9A2.62,2.62,0,1,1,9.82,6.91,2.62,2.62,0,0,1,7.2,9.53Z" fill="none" stroke="currentColor" stroke-linejoin="round"></path>
  </symbol>
  <symbol xmlns="http://www.w3.org/2000/svg" xmlns:xlink="http://www.w3.org/1999/xlink" viewBox="0 0 17 22" id="ic_lock">
    <path d="M10.3,1A2.7,2.7,0,0,1,13,3.7V9H4V3.7A2.7,2.7,0,0,1,6.7,1h3.6m0-1H6.7A3.7,3.7,0,0,0,3,3.7V10H14V3.7A3.7,3.7,0,0,0,10.3,0"></path>
    <rect y="9" width="17" height="1"></rect>
    <rect x="3" y="12" width="3" height="1" fill="currentColor"></rect>
    <rect x="3" y="12" width="3" height="1"></rect>
    <rect x="3" y="15" width="3" height="1" fill="currentColor"></rect>
    <rect x="3" y="15" width="3" height="1"></rect>
    <rect x="3" y="18" width="3" height="1" fill="currentColor"></rect>
    <rect x="3" y="18" width="3" height="1"></rect>
    <polygon points="16 20.91 1 20.91 1 10 0 10 0 22 17 22 17 10 16 10 16 20.91"></polygon>
  </symbol>
  <symbol xmlns="http://www.w3.org/2000/svg" viewBox="0 0 18 19" id="ic_logout">
    <rect x="3" y="9" width="15" height="1" fill="currentColor"></rect>
    <rect x="3" y="9" width="15" height="1" fill="currentColor"></rect>
    <rect width="1" height="4" fill="currentColor"></rect>
    <rect x="2" y="8" width="1" height="1" fill="currentColor"></rect>
    <rect x="2" y="8" width="1" height="1" fill="currentColor"></rect>
    <rect x="2" y="9" width="1" height="1" fill="currentColor"></rect>
    <rect x="2" y="9" width="1" height="1" fill="currentColor"></rect>
    <rect x="1" y="9" width="1" height="1" fill="currentColor"></rect>
    <rect x="1" y="9" width="1" height="1" fill="currentColor"></rect>
    <rect x="2" y="10" width="1" height="1" fill="currentColor"></rect>
    <rect x="2" y="10" width="1" height="1" fill="currentColor"></rect>
    <rect x="3" y="11" width="1" height="1" fill="currentColor"></rect>
    <rect x="3" y="11" width="1" height="1" fill="currentColor"></rect>
    <rect x="4" y="12" width="1" height="1" fill="currentColor"></rect>
    <rect x="4" y="12" width="1" height="1" fill="currentColor"></rect>
    <rect x="3" y="7" width="1" height="1" fill="currentColor"></rect>
    <rect x="3" y="7" width="1" height="1" fill="currentColor"></rect>
    <rect x="4" y="6" width="1" height="1" fill="currentColor"></rect>
    <rect x="4" y="6" width="1" height="1" fill="currentColor"></rect>
    <polygon points="0 0 0 1 15 1 15 10.04 15 10.96 15 18 0 18 0 19 16 19 16 9.96 16 9.04 16 0 0 0" fill="currentColor"></polygon>
  </symbol>
  <symbol xmlns="http://www.w3.org/2000/svg" xmlns:xlink="http://www.w3.org/1999/xlink" viewBox="0 0 14.54 14.89" id="ic_phone">
    <path d="M13.18,12.17,10.34,9.48a.68.68,0,0,0-.44-.19.78.78,0,0,0-.52.17l-.68.65a1.56,1.56,0,0,1-1.94-.26l-2-2.13a1.32,1.32,0,0,1-.11-1.81c.18-.16.62-.64.8-.8a.73.73,0,0,0,.06-1L3.06.86a.75.75,0,0,0-.55-.3.73.73,0,0,0-.6.26l0,.06C1.26,1.6,0,2.62,0,4.32.05,7.83,6.36,14.68,9.43,14.88c1,.06,1.89-.17,3.66-1.6a.71.71,0,0,0,.3-.55.74.74,0,0,0-.21-.56" fill="currentColor"></path>
    <path d="M14.52,7.49a.54.54,0,0,1-.47.39.55.55,0,0,1-.58-.49,7.19,7.19,0,0,0-5.18-6.3l-.13,0A.55.55,0,0,1,7.79.39.55.55,0,0,1,8.45,0l.14,0a8.26,8.26,0,0,1,5.95,7.23.65.65,0,0,1,0,.2" fill="currentColor"></path>
    <path d="M11.71,7.26a.53.53,0,0,1-.41.38.54.54,0,0,1-.63-.43A4.49,4.49,0,0,0,8,3.88a.54.54,0,1,1,.41-1A5.52,5.52,0,0,1,11.72,7a.42.42,0,0,1,0,.25" fill="currentColor"></path>
  </symbol>
  <symbol xmlns="http://www.w3.org/2000/svg" xmlns:xlink="http://www.w3.org/1999/xlink" viewBox="0 0 16.54 17.14" id="ic_phone2">
    <path d="M15.07,13.63l-3.13-3a.78.78,0,0,0-.49-.21.81.81,0,0,0-.57.19l-.75.71A1.73,1.73,0,0,1,8,11.07L5.79,8.71a1.46,1.46,0,0,1-.12-2c.2-.17.68-.71.88-.88a.8.8,0,0,0,.26-.55.82.82,0,0,0-.19-.57L3.88,1.12a.86.86,0,0,0-.6-.33.82.82,0,0,0-.67.29l0,.06C1.89,2,.47,3.07.5,5c.05,3.88,7,11.46,10.43,11.68C12,16.7,13,16.44,15,14.86a.81.81,0,0,0,.09-1.23Z" fill="none" stroke="currentColor" stroke-linejoin="round"></path>
    <path d="M10.3,0a.55.55,0,0,0-.51.4.53.53,0,0,0,.37.66l.12,0a7.2,7.2,0,0,1,5.19,6.3.53.53,0,0,0,.53.49h.05a.54.54,0,0,0,.47-.39.65.65,0,0,0,0-.2A8.26,8.26,0,0,0,10.59.06l-.14,0L10.3,0" fill="currentColor"></path>
    <path d="M10.15,2.85a.53.53,0,0,0-.49.33.54.54,0,0,0,.29.7,4.49,4.49,0,0,1,2.72,3.33.53.53,0,0,0,.52.44h.1a.53.53,0,0,0,.42-.38.52.52,0,0,0,0-.25,5.54,5.54,0,0,0-3.36-4.12.52.52,0,0,0-.21,0" fill="currentColor"></path>
  </symbol>
  <symbol xmlns="http://www.w3.org/2000/svg" viewBox="0 0 21 22" id="ic_products">
    <path d="M11,8h9V21H11ZM10,22H21V7H10Z" fill="currentColor"></path>
    <polygon points="0 0 0 22 8 22 8 21 1 21 1 1 14 1 14 5 15 5 15 0 0 0" fill="currentColor"></polygon>
    <rect x="13" y="11" width="2" height="1" fill="currentColor"></rect>
    <rect x="3" y="5" width="1" height="9" fill="currentColor"></rect>
    <rect x="5" y="5" width="1" height="9" fill="currentColor"></rect>
    <rect x="7" y="5" width="1" height="9" fill="currentColor"></rect>
    <rect x="13" y="14" width="2" height="1" fill="currentColor"></rect>
    <rect x="13" y="17" width="2" height="1" fill="currentColor"></rect>
    <rect x="16" y="11" width="2" height="1" fill="currentColor"></rect>
    <rect x="16" y="14" width="2" height="1" fill="currentColor"></rect>
    <rect x="16" y="17" width="2" height="1" fill="currentColor"></rect>
  </symbol>
  <symbol xmlns="http://www.w3.org/2000/svg" xmlns:xlink="http://www.w3.org/1999/xlink" viewBox="0 0 18.92 19.16" id="ic_register">
    <path d="M14.24,5.14A4.71,4.71,0,0,1,9.46,9.78,4.72,4.72,0,0,1,4.67,5.14,4.72,4.72,0,0,1,9.46.5,4.71,4.71,0,0,1,14.24,5.14Z" fill="none" stroke="currentColor" stroke-miterlimit="10"></path>
    <polygon points="15.42 8.53 15.42 11.53 18.42 11.53 15.42 11.53 15.42 14.53 15.42 8.53" fill="currentColor"></polygon>
    <polygon points="15.92 8.03 14.92 8.03 14.92 11.03 11.92 11.03 11.92 12.03 14.92 12.03 14.92 15.03 15.92 15.03 15.92 12.03 18.92 12.03 18.92 11.03 15.92 11.03 15.92 8.03" fill="currentColor"></polygon>
    <path d="M16.92,14.53l.28.36a2.47,2.47,0,0,1,.58,2.43,2,2,0,0,1-1.87.84H3a2,2,0,0,1-1.87-.84,2.44,2.44,0,0,1,.58-2.43l.93-1.2A4.88,4.88,0,0,1,6.18,12h4.74V11H6.18a5.85,5.85,0,0,0-4.32,2.05l-.93,1.2a3.34,3.34,0,0,0-.69,3.48A2.87,2.87,0,0,0,3,19.16h12.9a2.85,2.85,0,0,0,2.76-1.4A3.36,3.36,0,0,0,18,14.28l-.93-1.2L17,13h-.09Z" fill="currentColor"></path>
  </symbol>
  <symbol xmlns="http://www.w3.org/2000/svg" viewBox="0 0 21 23" id="ic_remove">
    <path d="M7,1h7V3H7ZM6,4h9V0H6Z" fill="currentColor"></path>
    <rect y="3" width="21" height="1" fill="currentColor"></rect>
    <rect x="6" y="6" width="1" height="13" fill="currentColor"></rect>
    <rect x="9" y="6" width="1" height="13" fill="currentColor"></rect>
    <polygon points="19 6 18 6 18 7 18 9 18 22 3 22 3 9 3 7 3 6 2 6 0 6 0 7 2 7 2 23 19 23 19 7 21 7 21 6 19 6" fill="currentColor"></polygon>
  </symbol>
  <symbol xmlns="http://www.w3.org/2000/svg" xmlns:xlink="http://www.w3.org/1999/xlink" viewBox="0 0 17 17" id="ic_reset">
    <path d="M8.5,1A7.5,7.5,0,1,1,1,8.5,7.5,7.5,0,0,1,8.5,1m0-1A8.5,8.5,0,1,0,17,8.5,8.51,8.51,0,0,0,8.5,0" fill="currentColor"></path>
    <polygon points="6.63 6.63 8.5 8.5 10.62 6.38 8.5 8.5 10.4 10.4 6.63 6.63" fill="currentColor"></polygon>
    <polygon points="10.62 5.67 8.5 7.79 6.38 5.67 5.67 6.38 7.79 8.5 5.67 10.62 6.38 11.33 8.5 9.21 10.62 11.33 11.33 10.62 9.21 8.5 11.33 6.38 10.62 5.67" fill="currentColor"></polygon>
  </symbol>
  <symbol xmlns="http://www.w3.org/2000/svg" xmlns:xlink="http://www.w3.org/1999/xlink" viewBox="0 0 22.08 22.08" id="ic_search">
    <path d="M13.12,0A8.94,8.94,0,0,0,6.45,14.92L.15,21.23a.48.48,0,0,0,0,.7.47.47,0,0,0,.35.15.47.47,0,0,0,.35-.15l6.31-6.3A9,9,0,1,0,13.12,0m0,16.92a8,8,0,1,1,8-8,8,8,0,0,1-8,8" fill="currentColor"></path>
    <path d="M6.41,8h1a5.81,5.81,0,0,1,4.7-4.7v-1A6.81,6.81,0,0,0,6.41,8" fill="currentColor"></path>
  </symbol>
  <symbol xmlns="http://www.w3.org/2000/svg" viewBox="0 0 20 19" id="ic_shop">
    <path d="M1,1H19V14H1ZM0,15H20V0H0Z" fill="currentColor"></path>
    <path d="M6,8H4V7H6ZM7,6H3V9H7Z" fill="currentColor"></path>
    <path d="M11,8H9V7h2Zm1-2H8V9h4Z" fill="currentColor"></path>
    <path d="M16,8H14V7h2Zm1-2H13V9h4Z" fill="currentColor"></path>
    <path d="M7,15h6v3H7ZM6,19h8V14H6Z" fill="currentColor"></path>
    <rect x="3" y="3" width="14" height="1" fill="currentColor"></rect>
    <rect x="9" y="12" width="2" height="1" fill="currentColor"></rect>
    <rect x="3" y="18" width="14" height="1" fill="currentColor"></rect>
  </symbol>
  <symbol xmlns="http://www.w3.org/2000/svg" xmlns:xlink="http://www.w3.org/1999/xlink" viewBox="0 0 21.69 18.19" id="ic_telegram">
    <path d="M21.63,1.66,18.36,17.09c-.25,1.09-.9,1.36-1.81.85l-5-3.68-2.4,2.32a1.28,1.28,0,0,1-1,.49L8.51,12l9.24-8.35c.41-.36-.08-.56-.62-.2L5.7,10.63.78,9.09C-.29,8.76-.31,8,1,7.51L20.25.1c.89-.34,1.67.19,1.38,1.56" fill="currentColor"></path>
  </symbol>
  <symbol xmlns="http://www.w3.org/2000/svg" xmlns:xlink="http://www.w3.org/1999/xlink" viewBox="0 0 17 17" id="ic_time">
    <path d="M8.5,1A7.5,7.5,0,1,1,1,8.5,7.5,7.5,0,0,1,8.5,1m0-1A8.5,8.5,0,1,0,17,8.5,8.51,8.51,0,0,0,8.5,0" transform="translate(0 0)" fill="currentColor"></path>
    <rect x="8.02" y="4.05" width="1" height="5" fill="currentColor"></rect>
    <rect x="8.02" y="8.05" width="5" height="1" fill="currentColor"></rect>
  </symbol>
  <symbol xmlns="http://www.w3.org/2000/svg" xmlns:xlink="http://www.w3.org/1999/xlink" viewBox="0 0 20.84 21.06" id="ic_user">
    <path d="M15.69,5.61a5.19,5.19,0,0,1-5.27,5.11A5.19,5.19,0,0,1,5.15,5.61,5.19,5.19,0,0,1,10.42.5,5.19,5.19,0,0,1,15.69,5.61Z" fill="none" stroke="currentColor" stroke-miterlimit="10"></path>
    <path d="M17.53,21.06H3.31a3.13,3.13,0,0,1-3-1.55A3.68,3.68,0,0,1,1,15.68l1-1.32A6.43,6.43,0,0,1,6.8,12.11H14a6.43,6.43,0,0,1,4.75,2.25l1,1.32a3.68,3.68,0,0,1,.75,3.83,3.13,3.13,0,0,1-3,1.55M6.8,13.11a5.46,5.46,0,0,0-4,1.86l-1,1.32a2.83,2.83,0,0,0-.65,2.78,2.22,2.22,0,0,0,2.15,1H17.53a2.2,2.2,0,0,0,2.14-1A2.8,2.8,0,0,0,19,16.29L18,15a5.46,5.46,0,0,0-4-1.86Z" fill="currentColor"></path>
    <polygon points="13.78 13.02 13.07 12.31 10.42 14.96 7.77 12.31 7.06 13.02 10.42 16.38 10.42 16.38 10.42 16.38 13.78 13.02" fill="currentColor"></polygon>
  </symbol>
  <symbol xmlns="http://www.w3.org/2000/svg" xmlns:xlink="http://www.w3.org/1999/xlink" viewBox="0 0 19.96 12" id="ic_view">
    <path d="M10,1c3.95,0,7.43,3.56,8.68,5-1.25,1.44-4.73,5-8.68,5S2.54,7.44,1.29,6C2.54,4.55,6,1,10,1m0-1C4.47,0,0,6,0,6s4.47,6,10,6S20,6,20,6,15.49,0,10,0" fill="currentColor"></path>
    <path d="M10,3.75A2.25,2.25,0,1,1,7.73,6,2.25,2.25,0,0,1,10,3.75m0-1A3.25,3.25,0,1,0,13.23,6,3.25,3.25,0,0,0,10,2.75" fill="currentColor"></path>
  </symbol>
  <symbol xmlns="http://www.w3.org/2000/svg" xmlns:xlink="http://www.w3.org/1999/xlink" viewBox="0 0 21.52 12.9" id="ic_vk">
    <path d="M11.49,12.89c.72,0,.72-1,.72-1.43A1.54,1.54,0,0,1,13.64,10c.72,0,1.94,1.23,2.87,2.15.71.71.71.71,1.43.71h2.15a1.44,1.44,0,0,0,1.43-1.43c0-.45-.49-1.21-2.15-2.86-1.43-1.44-2.17-.7,0-3.58,1.32-1.77,2.28-3.36,2.12-3.82S17.66.06,17.22.72A27.77,27.77,0,0,0,15.07,4.3c-.71,1.43-.79,2.15-1.43,2.15s-.72-1.39-.72-2.15c0-2.37.35-4-.71-4.3H10.06A4.13,4.13,0,0,0,7.91.72s-.89.69-.72.71,1.44-.29,1.44.72V3.58s0,2.87-.72,2.87-2.15-2.87-3.58-5C3.76.59,3.61.72,2.89.72S1.46.75.75.75s-.81.45-.72.68C1.46,5,2.49,7.26,5.21,10.1c2.5,2.6,4.17,2.73,5.56,2.79.36,0,0,0,.72,0" fill="currentColor"></path>
  </symbol>
  <symbol xmlns="http://www.w3.org/2000/svg" xmlns:xlink="http://www.w3.org/1999/xlink" viewBox="0 0 18.1 18.19" id="ic_whatsapp">
    <path d="M15.47,2.64A9,9,0,0,0,.08,9a8.91,8.91,0,0,0,1.2,4.51L0,18.19l4.78-1.25A9.1,9.1,0,0,0,9.09,18h0A9,9,0,0,0,15.47,2.64m-2,9.59A2.35,2.35,0,0,1,12,13.31a3.23,3.23,0,0,1-1.42-.09c-.33-.11-.75-.25-1.28-.48a10,10,0,0,1-3.85-3.4A4.4,4.4,0,0,1,4.51,7,2.52,2.52,0,0,1,5.3,5.13a.83.83,0,0,1,.6-.28h.43c.14,0,.32-.05.51.38s.64,1.56.69,1.68a.41.41,0,0,1,0,.39,1.25,1.25,0,0,1-.23.38c-.11.13-.23.29-.33.39a.32.32,0,0,0-.1.46A6.46,6.46,0,0,0,8.14,10.1,6.11,6.11,0,0,0,10,11.22c.23.11.36.09.49-.06s.56-.65.71-.88.3-.19.51-.11,1.31.62,1.54.73a1.23,1.23,0,0,1,.43.26,1.82,1.82,0,0,1-.13,1.07" fill="currentColor" fill-rule="evenodd"></path>
  </symbol>
  <symbol xmlns="http://www.w3.org/2000/svg" xmlns:xlink="http://www.w3.org/1999/xlink" viewBox="0 0 21.33 21.33" id="ic_zoom">
    <path d="M12.42,1A7.91,7.91,0,1,1,4.51,8.91,7.92,7.92,0,0,1,12.42,1m0-1a8.91,8.91,0,1,0,8.91,8.91A8.91,8.91,0,0,0,12.42,0" transform="translate(0 0)" fill="currentColor"></path>
    <line x1="6.3" y1="15.03" x2="0.5" y2="20.83" fill="none" stroke="currentColor" stroke-linecap="round" stroke-miterlimit="10"></line>
    <polygon points="12.42 5.91 12.42 8.91 15.42 8.91 12.42 8.91 12.42 11.91 12.42 5.91" fill="currentColor"></polygon>
    <polygon points="12.92 5.41 11.92 5.41 11.92 8.41 8.92 8.41 8.92 9.41 11.92 9.41 11.92 12.41 12.92 12.41 12.92 9.41 15.92 9.41 15.92 8.41 12.92 8.41 12.92 5.41" fill="currentColor"></polygon>
  </symbol>
</svg>